<svg width="24" height="24" viewBox="0 0 24 24" fill="none" xmlns="http://www.w3.org/2000/svg">
<path d="M2.75012 3.24989L4.83012 3.60989L5.79312 15.0829C5.87012 16.0199 6.65312 16.7389 7.59312 16.7359H18.5021C19.3991 16.7379 20.1601 16.0779 20.2871 15.1899L21.2361 8.63189C21.3421 7.89889 20.8331 7.21889 20.1011 7.11289C20.0371 7.10389 5.16412 7.09889 5.16412 7.09889" stroke="#130F26" stroke-width="1.5" stroke-linecap="round" stroke-linejoin="round"/>
<path d="M14.1251 10.7948H16.8981" stroke="#130F26" stroke-width="1.5" stroke-linecap="round" stroke-linejoin="round"/>
<path fill-rule="evenodd" clip-rule="evenodd" d="M7.15447 20.2025C7.45547 20.2025 7.69847 20.4465 7.69847 20.7465C7.69847 21.0475 7.45547 21.2915 7.15447 21.2915C6.85347 21.2915 6.61047 21.0475 6.61047 20.7465C6.61047 20.4465 6.85347 20.2025 7.15447 20.2025Z" fill="#130F26" stroke="#130F26" stroke-width="1.5" stroke-linecap="round" stroke-linejoin="round"/>
<path fill-rule="evenodd" clip-rule="evenodd" d="M18.4347 20.2025C18.7357 20.2025 18.9797 20.4465 18.9797 20.7465C18.9797 21.0475 18.7357 21.2915 18.4347 21.2915C18.1337 21.2915 17.8907 21.0475 17.8907 20.7465C17.8907 20.4465 18.1337 20.2025 18.4347 20.2025Z" fill="#130F26" stroke="#130F26" stroke-width="1.5" stroke-linecap="round" stroke-linejoin="round"/>
</svg>
