<?xml version="1.0" ?><svg style="enable-background:new 0 0 48 48;" version="1.1" viewBox="0 0 48 48" xml:space="preserve" xmlns="http://www.w3.org/2000/svg" xmlns:xlink="http://www.w3.org/1999/xlink"><g id="Icons"><g><path d="M38.62744,34.90911H9.37245c-1.21976,0-2.20851-0.98886-2.20851-2.20851v-17.4011    c0-1.21976,0.98875-2.20862,2.20862-2.20862h29.25477c1.21987,0,2.20873,0.98886,2.20873,2.20873v17.40088    C40.83606,33.92026,39.8472,34.90911,38.62744,34.90911z" style="fill:#F9F9F9;"/><rect height="3.43589" style="fill:#383838;" width="33.67212" x="7.16394" y="18.76018"/><path d="    M38.62744,34.90911H9.37245c-1.21976,0-2.20851-0.98886-2.20851-2.20851v-17.4011c0-1.21976,0.98875-2.20862,2.20862-2.20862    h29.25477c1.21987,0,2.20873,0.98886,2.20873,2.20873v17.40088C40.83606,33.92026,39.8472,34.90911,38.62744,34.90911z" style="fill:none;stroke:#303030;stroke-width:0.8;stroke-linecap:round;stroke-linejoin:round;stroke-miterlimit:10;"/><line style="fill:none;stroke:#303030;stroke-width:0.8;stroke-linecap:round;stroke-linejoin:round;stroke-miterlimit:10;" x1="7.16394" x2="40.60214" y1="18.76018" y2="18.76018"/><line style="fill:none;stroke:#303030;stroke-width:0.8;stroke-linecap:round;stroke-linejoin:round;stroke-miterlimit:10;" x1="40.59009" x2="7.34546" y1="22.19606" y2="22.19606"/><line style="fill:none;stroke:#303030;stroke-width:0.8;stroke-linecap:round;stroke-linejoin:round;stroke-miterlimit:10;" x1="10.25618" x2="18.5883" y1="30.87183" y2="30.87183"/><line style="fill:none;stroke:#303030;stroke-width:0.8;stroke-linecap:round;stroke-linejoin:round;stroke-miterlimit:10;" x1="10.25618" x2="13.83698" y1="28.18824" y2="28.18824"/></g><g><path d="M37.74658,29.02528c0,1.63974-1.32927,2.96901-2.96901,2.96901    c-0.76863,0-1.46904-0.29208-1.9963-0.7713c-0.13538-0.12305-0.72256,0.09567-0.97992-0.05028    c-0.87858-0.49825-1.83891-1.47369-1.83891-2.14744c0-0.69577,0.91921-1.7924,1.72252-2.29854    c0.14328-0.09028,0.91186,0.28046,0.99319,0.19913c0.53729-0.53729,1.27954-0.86961,2.09941-0.86961    C36.4173,26.05626,37.74658,27.38554,37.74658,29.02528z" style="fill:#FFC601;"/><path d="M34.83688,25.8497c-0.8222,0-1.56873,0.31755-2.13306,0.83198    c-0.48878-0.36658-1.09322-0.58683-1.75126-0.58683c-1.6182,0-2.93015,1.31195-2.93015,2.93037    c0,1.6182,1.31195,2.93015,2.93015,2.93015c0.65771,0,1.26173-0.22004,1.75007-0.58629    c0.56455,0.51454,1.31195,0.83177,2.13426,0.83177c1.75093,0,3.17552-1.4248,3.17552-3.17584    C38.01239,27.27396,36.58781,25.8497,34.83688,25.8497z M34.83688,31.71022c-0.65761,0-1.25803-0.24037-1.72528-0.63423    l-0.03283-0.03838h-1.12725v-0.49062h1.50166c0.07784-0.12752,0.14818-0.26015,0.20601-0.39952h-2.10447v-0.49062h2.25798    c0.0287-0.13013,0.04783-0.26341,0.05849-0.39952h-2.51802v-0.49051h2.51671c-0.01196-0.13643-0.03392-0.26961-0.06392-0.40006    h-2.25124v-0.49062h2.09382c-0.05957-0.13959-0.13198-0.272-0.21167-0.39952h-1.48535v-0.49051h0.97451    c0.03718,0.0175,0.0761,0.03588,0.111,0.05251c0.47671-0.43225,1.10703-0.69827,1.79986-0.69827    c1.48057,0,2.68489,1.20433,2.68489,2.68468C37.52177,30.50579,36.31744,31.71022,34.83688,31.71022z" style="fill:#303030;"/><circle cx="30.99162" cy="29.02528" r="2.33101" style="fill:#F43735;"/></g></g></svg>