<svg version="1.1" id="Capa_1" xmlns="http://www.w3.org/2000/svg" xmlns:xlink="http://www.w3.org/1999/xlink" x="0px" y="0px"
	 viewBox="0 0 461.6 492.8" style="enable-background:new 0 0 461.6 492.8;" xml:space="preserve">
<style type="text/css">
	.st0{fill:#F8214A;}
	.st1{fill:#C88500;}
	.st2{fill:#C81C45;}
	.st3{fill:#F8C435;}
</style>
<path class="st0" d="M443,128.8H18.6c-7.4,0-13.4,6-13.4,13.4v51.3c0,7.4,6,13.4,13.4,13.4H26v265.9c0,8.3,6.7,15,15,15h378.2
	c8.3,0,15-6.7,15-15V206.8h9c7.4,0,13.4-6,13.4-13.4v-51.3C456.4,134.8,450.4,128.8,443,128.8z"/>
<g>
	<g>
		<g>
			<path class="st1" d="M227.2,134.6c-29-0.2-58.1-1-87.3-4.4c-7.3-0.9-14.7-2.1-22-3.7c-3.7-0.8-7.4-1.8-11.2-3
				c-3.8-1.2-7.6-2.6-11.6-4.9c-1-0.6-2-1.1-3-1.9l-1.5-1.2l-0.8-0.6c-0.3-0.2-0.6-0.6-1-1c-0.7-0.7-1.3-1.4-1.9-2.2l-0.8-1.2
				c-0.3-0.4-0.3-0.4-0.4-0.7l-0.7-1.2l-0.2-0.3l0-0.1c0.4,1-0.6-1.4-0.5-1.2l-0.1-0.2L84,106c-0.6-2.4-1.5-4.8-1.5-7.2l-0.3-3.6
				c-0.1-1.2,0.1-2.3,0.1-3.5c0.7-9.2,3.9-17.4,8.1-24.7c4.3-7.3,9.7-13.8,16.5-19.3l2.6-2l2.8-1.8c1-0.6,1.9-1.2,2.9-1.8l3.1-1.5
				c2-1.1,4.4-1.8,6.8-2.5l1.8-0.5c0.7-0.1,1.5-0.2,2.2-0.4c1.5-0.2,3-0.4,4.6-0.5c0.3,0,0.8-0.1,1.1,0l0.7,0l1.4,0.1l1.4,0.1l0.7,0
				l0.2,0l0.1,0c-0.2,0,2.2,0.3,1.2,0.2l0.4,0.1c2.1,0.5,4.3,0.8,6.4,1.5c2.1,0.6,4.1,1.3,6.1,2.1c2,0.7,3.9,1.6,5.7,2.5
				c7.4,3.6,14.1,8.1,20.2,12.9c12.2,9.8,22.3,21.1,31.3,33c9,12,16.8,24.5,23.6,37.7c2.1,4.2-7.1,9.8-9.8,6.2
				c-8.7-11.2-18-22.1-27.6-32.3c-9.6-10.2-19.8-19.8-30.5-27.7c-5.4-3.9-11-7.4-16.6-10c-1.4-0.7-2.8-1.3-4.2-1.8
				c-1.4-0.6-2.8-1-4.2-1.4c-1.4-0.5-2.8-0.6-4.2-1l-0.3-0.1c2.2,0.3,0.6,0.1,1,0.1l-0.1,0l-0.2,0l-0.7,0l-1.4-0.1l-1.4-0.1l-0.7,0
				c-0.2,0-0.2,0.1-0.3,0.1c-0.3,0.1-0.6,0.2-0.8,0.2c-0.2,0-0.3,0-0.5,0l-0.8,0.3c-1.1,0.3-2.3,0.6-3.4,1.2l-1.8,0.8l-1.8,1.1
				l-1.8,1.1l-1.7,1.3c-4.6,3.5-8.9,8-12.2,13c-3.3,5-5.8,10.6-6.5,15.7c-0.3,1.3-0.3,2.5-0.3,3.7c-0.2,1.3,0.3,2.3,0.4,3.4l0.1,0.4
				l0,0.1c-0.8-0.2,1.8,0.5-1.8-0.4l0.3,0.1l0.5,0.1c0.3,0.1,0.7,0.1,1,0.2l0.3,0.6c0.1,0.1,0.2,0.6,0.2,0.5c0-0.1,0-0.1,0-0.1
				c0-0.1,0-0.1-0.1-0.2c-0.2-0.1,0,0.1,0.3,0.3l0.6,0.5c0.3,0.4,0.9,0.7,1.5,1.1c2.1,1.6,5.1,3,8,4.3c3,1.3,6.2,2.5,9.5,3.5
				c6.6,2.1,13.4,3.9,20.3,5.6c27.8,6.4,56.5,10.5,85.2,13.5C232.2,131.2,231.8,134.5,227.2,134.6z"/>
			<path d="M227.2,138L227.2,138c-27.7-0.2-57.4-0.8-87.7-4.5c-8.6-1.1-15.7-2.3-22.4-3.7c-3.8-0.8-7.7-1.8-11.5-3
				c-3.9-1.3-7.9-2.7-12.3-5.2l-0.6-0.3c-0.9-0.5-1.8-1-2.9-1.9l-2.3-1.8c-0.3-0.3-0.8-0.7-1.2-1.1c-0.9-1-1.6-1.8-2.3-2.7l-0.6-0.9
				l-0.4,0.2l-1.4-3.2c-0.2-0.4-0.4-0.9-0.6-1.4l0,0l0,0c0-0.2-0.1-0.3-0.1-0.5l-0.1,0l-0.8-2.8c-0.6-2-1.2-4.2-1.2-6.5l-0.3-3.4
				c-0.1-1,0-2,0.1-2.9c0-0.3,0.1-0.7,0.1-1c0.6-8.9,3.4-17.5,8.5-26.3C92,57.3,97.8,50.5,104.7,45l2.6-2.1l3.9-2.5
				c0.7-0.5,1.5-0.9,2.2-1.4l3.4-1.6c2.1-1.1,4.6-1.9,7.3-2.7l1.8-0.5c1-0.2,1.7-0.3,2.5-0.4c1.9-0.3,3.5-0.4,5.1-0.5
				c0.7,0,1.2-0.1,1.4-0.1l4.1,0.4c0.2,0,0.3,0,0.5,0l0,0l0,0c0.5,0,1,0.1,1.4,0.1l3.4,0.4l0,0.3c1.3,0.3,2.6,0.6,3.8,1
				c1.8,0.5,4.1,1.2,6.3,2.1c2.2,0.8,4.3,1.8,5.9,2.6c7,3.4,13.8,7.8,20.8,13.4c11.1,9,21.6,20,31.9,33.6
				c9.1,12,17.1,24.9,23.9,38.3c1.6,3.3,0.3,7.1-3.3,9.8C232.6,136.8,230.5,138,227.2,138L227.2,138z M88.9,108.4l0.9,1.2
				c0.5,0.6,1,1.3,1.6,1.9c0.3,0.4,0.5,0.5,0.6,0.7l2.2,1.7c0.7,0.6,1.4,1,2,1.3l0.6,0.4c3.7,2.2,7.3,3.4,10.9,4.6
				c3.5,1.1,7.2,2.1,10.8,2.9c6.4,1.4,13.4,2.6,21.8,3.6c19.1,2.3,38.1,3.4,56.4,3.9c-20.1-2.8-38.4-6.1-55.3-9.9
				c-8.1-1.9-14.6-3.7-20.6-5.7c-3.3-1.1-6.6-2.3-9.8-3.6c-4-1.7-6.7-3.2-8.7-4.7l-0.4-0.2c-0.2-0.2-0.5-0.4-0.8-0.6l-1.2,0.1
				l-0.8-1.8c-0.1,0-0.2,0-0.3-0.1l0-0.1l-1.5-0.5l0.6-3c0-0.2-0.1-0.3-0.1-0.4c-0.2-0.8-0.4-1.8-0.3-3.1l0-0.2c0-1.2,0-2.5,0.3-4.1
				c0.7-5.1,3.2-11.2,7-16.9c3.6-5.4,8.1-10.2,13-13.9l2.1-1.5l4-2.3l1.8-0.8c1-0.6,2.2-0.9,3.2-1.2l2.8-0.8l1.3-0.1l1.1,0.1l0-0.1
				l2.5,0.3l0,0c0.1,0,0.3,0,0.5,0.1l0.6,0.1l0,0c0.3,0.1,0.6,0.2,0.9,0.3c0.1,0,0.1,0,0.2,0c1,0.2,2,0.4,3,0.8l0.3,0.1
				c1.3,0.4,2.7,0.8,4.1,1.4c1.5,0.5,3.1,1.3,4.4,1.9c5.4,2.5,11.2,6,17.2,10.3c9.8,7.2,19.6,16.1,31,28.1
				c8.4,8.9,16.6,18.4,24.4,28.2c1.5,0.2,3,0.3,4.5,0.5c1,0.1,1.9,0.3,2.6,0.6c-6.5-12.5-14.2-24.9-22.9-36.4
				c-10-13.2-20-23.8-30.7-32.4c-6.6-5.2-13-9.3-19.5-12.5c-1.5-0.7-3.4-1.6-5.4-2.4c-2-0.8-4-1.4-5.8-2c-1.3-0.4-2.7-0.7-4.1-1
				c-0.7-0.1-1.4-0.3-2.1-0.5l-2-0.2l-3.4-0.2l-0.3,0c-1.7,0.1-3.2,0.3-4.6,0.4c-0.8,0.1-1.5,0.2-2,0.3l-1.5,0.4
				c-2.4,0.7-4.4,1.3-6.1,2.2l-3.3,1.6c-0.5,0.3-1.1,0.7-1.7,1.1l-3.6,2.3l-2.3,1.8c-6.2,5-11.4,11.2-15.6,18.3
				c-4.6,7.9-7,15.5-7.6,23.2c0,0.3,0,0.7-0.1,1.2c0,0.6-0.1,1.2-0.1,1.8l0.3,3.5c0,1.6,0.5,3.2,1,4.9l0.7,2.5h0
				c0.1,0.2,0.2,0.6,0.4,0.8l0.8,1.4l-0.2,0.1l0.1,0.3L88.9,108.4z M105.6,100.5c0,0,0.1,0.1,0.2,0.1l0.5,0.4c2.1,1.5,5.2,3,7.4,3.9
				c3,1.2,6.1,2.4,9.2,3.4c5.8,1.9,12.2,3.6,20.1,5.5c21.1,4.8,44.2,8.7,70.4,11.8c-6.4-7.7-12.9-15.2-19.6-22.3
				c-11.1-11.7-20.6-20.4-30.1-27.3c-5.6-4.1-11-7.3-16-9.7c-1.1-0.5-2.5-1.2-3.9-1.7c-1.3-0.6-2.5-0.9-3.6-1.2l-0.5-0.1
				c-0.9-0.3-1.5-0.4-2.2-0.6c-0.5-0.1-1-0.2-1.5-0.3l-2.6-0.2c-0.4,0.1-0.9,0.2-1.3,0.3l-0.5,0.1l-0.8,0.2c-0.8,0.2-1.4,0.4-2,0.7
				l-1.8,0.8l-3.2,1.9l-1.6,1.2c-4.3,3.2-8.2,7.4-11.4,12.2c-3.2,4.8-5.3,9.9-6,14.3c-0.2,1-0.2,1.8-0.2,2.8l0,0.7l0,0.2
				c0,0.2,0,0.4,0.1,0.8l1.1,0.3l-0.2,0.9l0.1,0L105.6,100.5z M131.7,62.6L131.7,62.6C131.7,62.6,131.7,62.6,131.7,62.6z"/>
		</g>
	</g>
	<g>
		<g>
			<path class="st1" d="M234.3,130.9c28.7-3,57.4-7.1,85.2-13.5c6.9-1.6,13.8-3.5,20.3-5.6c3.3-1.1,6.5-2.3,9.5-3.5
				c3-1.3,5.9-2.7,8.1-4.3c0.5-0.4,1.2-0.8,1.5-1.1l0.6-0.5l0.3-0.3c0.1-0.1,0,0,0,0c-0.1,0-0.1,0.1-0.1,0.2c0,0,0,0.1,0,0.1
				c0,0,0.2-0.3,0.3-0.5l0.6-1.2l0.1-0.3l0-0.1c0.4-1-0.6,1.3-0.5,1.1l0-0.1l0.1-0.4c0.1-1.2,0.5-2.2,0.4-3.4l0-1.8
				c0-0.6-0.2-1.3-0.3-1.9c-0.8-5.2-3.2-10.7-6.6-15.7c-3.3-5-7.6-9.5-12.2-13l-1.7-1.3l-1.8-1l-1.8-1l-1.8-0.8
				c-1.2-0.6-2.3-0.9-3.4-1.2l-0.8-0.3l-0.5,0c-0.3,0-0.5-0.1-0.8-0.2c-0.1,0-0.1-0.1-0.3-0.1l-0.7,0.1l-1.4,0.1l-1.4,0.1l-0.7,0
				l-0.2,0l-0.1,0c-0.3,0,2.1-0.3,1.1-0.1l-0.3,0.1c-1.4,0.4-2.8,0.5-4.2,1c-1.4,0.4-2.8,0.8-4.2,1.4c-1.4,0.5-2.8,1.1-4.2,1.8
				c-5.6,2.6-11.2,6.1-16.6,10c-10.8,7.9-20.9,17.5-30.6,27.6c-9.7,10.2-19,20.9-27.9,32c-2.6,3.4-12-2-9.8-6.2
				c6.9-13.1,14.9-25.6,23.9-37.5c9.1-11.9,19.2-23.1,31.4-32.9c6.1-4.9,12.7-9.3,20.2-12.9c1.9-0.9,3.7-1.8,5.7-2.5
				c1.9-0.8,4-1.4,6-2.1c2-0.7,4.2-1,6.4-1.5l0.4-0.1l1.2-0.1l0.1,0l0.2,0l0.7,0l1.4-0.1l1.4-0.1l0.7,0l1.1,0.1
				c1.5,0.1,3,0.2,4.5,0.5c0.7,0.1,1.5,0.2,2.2,0.4l1.8,0.5c2.4,0.7,4.7,1.4,6.7,2.5l3.1,1.5c1,0.6,1.9,1.2,2.9,1.8l2.8,1.8l2.6,2
				c6.8,5.5,12.2,11.9,16.5,19.2c4.2,7.3,7.4,15.5,8.1,24.7c0.1,1.2,0.2,2.3,0.1,3.5l-0.3,3.6c-0.1,2.4-0.9,4.8-1.5,7.2l-0.3,0.9
				l0,0.1c-0.2,0.5,0.5-1.1-0.5,1.3l-0.1,0.1l-0.2,0.3l-0.7,1.2c-0.2,0.2-0.1,0.3-0.4,0.7l-0.9,1.2c-0.6,0.8-1.2,1.5-1.9,2.2
				c-0.7,0.8-1.2,1.2-1.7,1.6l-1.5,1.2c-1.1,0.9-2,1.3-3,1.9c-4,2.3-7.8,3.7-11.6,4.9c-3.8,1.2-7.5,2.2-11.2,3
				c-7.4,1.6-14.7,2.8-22,3.7c-29.3,3.5-58.3,4.3-87.3,4.5C229.6,134.7,229.7,131.4,234.3,130.9z"/>
			<path d="M234.5,138.2c-3.7,0-5.7-1.4-6.6-3.1c-3.8-2.7-5.2-6.7-3.4-10c7-13.3,15.1-26.1,24.2-38c10.5-13.6,20.9-24.6,32-33.5
				c7-5.6,13.9-10,20.8-13.3c2.3-1.1,4.2-1.9,6-2.6c1.9-0.8,4-1.5,6.2-2.1c1.5-0.5,3.1-0.8,4.6-1.2c0.6-0.1,1.3-0.3,1.9-0.4l3.1-0.4
				l3.6-0.2l1.3,0.1c1.6,0.1,3.2,0.3,4.8,0.5l0.4,0.1c0.7,0.1,1.5,0.2,2.1,0.3l2,0.6c2.6,0.8,5.1,1.5,7.4,2.7l3,1.5
				c1,0.6,1.7,1,2.4,1.5l3.6,2.3l2.8,2.2c6.9,5.5,12.7,12.3,17.3,20.2c5.1,8.9,7.9,17.4,8.6,26.2c0,0.4,0,0.8,0.1,1.1
				c0.1,0.9,0.1,1.9,0.1,2.9l-0.3,3.6c0,2.1-0.7,4.3-1.2,6.2l-0.9,3l0,0c0,0,0,0.1,0,0.1l0,0l-0.2,0.4c-0.1,0.3-0.2,0.6-0.3,0.8
				l-0.9,1.9l-0.1,0l-0.1,0.1c-0.2,0.3-0.3,0.5-0.6,1l-0.9,1.2c-0.7,0.9-1.4,1.7-2.1,2.5c-0.8,0.9-1.5,1.5-2,1.9l-1.6,1.3
				c-1,0.8-1.9,1.3-2.8,1.8l-0.6,0.4c-4.4,2.6-8.5,4-12.2,5.2c-3.8,1.2-7.6,2.2-11.5,3.1c-6.6,1.5-13.7,2.7-22.3,3.8
				C291.7,137.4,262,138.1,234.5,138.2z M361.2,105.4c-0.5,0.5-1,0.8-1.4,1.2l-0.3,0.2c-2,1.5-4.7,2.9-8.7,4.7
				c-3.3,1.4-6.6,2.6-9.9,3.7c-5.9,1.9-12.7,3.8-20.6,5.7c-17,3.9-35.3,7.2-55.4,10c18.3-0.5,37.2-1.6,56.5-4
				c8.4-1.1,15.3-2.2,21.7-3.7c3.7-0.8,7.3-1.8,10.9-2.9c3.4-1.1,7.1-2.4,10.9-4.6l0.7-0.4c0.6-0.4,1.2-0.7,1.9-1.2l1.6-1.2
				c0.4-0.3,0.8-0.6,1.2-1.1c0.6-0.7,1.2-1.3,1.7-2l1.7-2.6l0.7-2c0.1-0.5,0.3-1,0.4-1.6c0.5-1.7,0.9-3.3,1-4.7l0.3-3.8
				c0-0.6,0-1.2-0.1-1.8c0-0.4-0.1-0.8-0.1-1.3c-0.6-7.6-3.1-15.2-7.6-23.1c-4.2-7.1-9.5-13.3-15.7-18.3l-2.5-2l-3.3-2.1
				c-0.7-0.4-1.3-0.8-2-1.2l-2.9-1.4c-1.8-1-4-1.6-6.2-2.3l-1.8-0.5c-0.3,0-0.8-0.1-1.3-0.2l-0.4-0.1c-1.4-0.2-2.8-0.3-4.3-0.4
				l-0.8,0l-5.2,0.4c-0.6,0.1-1.3,0.3-2,0.4c-1.4,0.3-2.8,0.6-3.9,1c-2.2,0.7-4.1,1.2-5.8,2c-1.8,0.7-3.5,1.4-5.5,2.4
				C298,49.7,291.6,53.8,285,59c-10.6,8.5-20.7,19.1-30.8,32.3c-8.8,11.6-16.7,24-23.5,36.9c0.9-0.4,1.9-0.7,3.2-0.8
				c1.3-0.1,2.5-0.3,3.8-0.4c8.2-10,16.6-19.6,25.1-28.5c11.5-12,21.4-20.9,31.1-28c6-4.3,11.7-7.8,17.2-10.4
				c1.3-0.6,2.9-1.4,4.5-1.9c1.3-0.5,2.7-1,4-1.4c1.2-0.4,2.2-0.6,3.2-0.8c0.1,0,0.2,0,0.3-0.1c0.3-0.1,0.6-0.2,0.9-0.3l0,0l0.4,0
				c0.3-0.1,0.6-0.1,0.9-0.1l3.5-0.4l0,0.2l1-0.1l0.7,0.4l1,0.2l1.5,0.4c1,0.3,2.1,0.6,3.4,1.3l1.9,0.8l3.9,2.3l1.7,1.3
				c4.9,3.6,9.4,8.4,13.1,13.8c3.8,5.7,6.3,11.7,7.1,17.1c0,0.3,0.1,0.4,0.1,0.6c0.1,0.5,0.2,1.2,0.2,1.9V97c0,0.2,0,0.3,0,0.5
				l1.1,0.5l-1.3,3.2c-0.1,0.2-0.2,0.4-0.3,0.6l0.5,0.8l-1.6,1.5C362.3,104.6,361.9,105.1,361.2,105.4z M325.6,62.6
				c-0.5,0.1-1,0.2-1.5,0.3c-0.7,0.1-1.4,0.3-2.1,0.5l-0.5,0.2c-1.2,0.4-2.4,0.7-3.5,1.2c-1.5,0.5-2.9,1.1-4.1,1.7
				c-5,2.3-10.4,5.6-16,9.7c-9.4,6.9-18.9,15.5-30.1,27.2c-6.8,7.1-13.5,14.7-20.1,22.5c26.4-3.1,49.7-7,71-11.9
				c7.7-1.8,14.3-3.6,20-5.5c3.1-1,6.2-2.2,9.2-3.4c2.1-0.9,5.3-2.4,7.3-3.9l0.5-0.3c0,0,0.1-0.1,0.1-0.1l-0.1-1l1-0.4
				c0-0.2,0.1-0.4,0.1-0.6c0.1-0.5,0.2-0.8,0.1-1l0-0.4l0-1.8c0-0.2-0.1-0.3-0.1-0.5c-0.1-0.3-0.1-0.7-0.2-1
				c-0.6-4.3-2.8-9.4-6-14.2c-3.2-4.7-7.1-8.9-11.4-12.1l-1.6-1.2l-3.2-1.9l-1.6-0.7c-0.8-0.4-1.4-0.6-2.2-0.8l-1.3-0.4
				c-0.5,0-1-0.1-1.4-0.3L325.6,62.6z"/>
		</g>
	</g>
	<g>
		<path d="M419.1,492.8H40.9c-11.1,0-20.2-9.1-20.2-20.2V201.5h418.6v271.1C439.3,483.8,430.2,492.8,419.1,492.8z M31.2,212v260.6
			c0,5.4,4.4,9.7,9.7,9.7h378.1c5.4,0,9.7-4.4,9.7-9.7V212H31.2z"/>
	</g>
	<g>
		<g>
			<path d="M443,212H18.6C8.3,212,0,203.7,0,193.4v-51.3c0-10.3,8.3-18.6,18.6-18.6H443c10.3,0,18.6,8.3,18.6,18.6v51.3
				C461.6,203.7,453.3,212,443,212z M18.6,134c-4.5,0-8.1,3.6-8.1,8.1v51.3c0,4.5,3.6,8.1,8.1,8.1H443c4.5,0,8.1-3.6,8.1-8.1v-51.3
				c0-4.5-3.6-8.1-8.1-8.1H18.6z"/>
		</g>
	</g>
	<g>
		<rect x="31.2" y="211.5" class="st2" width="397.6" height="18.6"/>
	</g>
	<g>
		<g>
			<polyline class="st3" points="263.6,208.9 263.6,487.6 197.3,487.6 197.3,208.9 			"/>
		</g>
		<g>
			<polygon points="268.8,492.8 192,492.8 192,208.9 202.5,208.9 202.5,482.4 258.3,482.4 258.3,208.9 268.8,208.9 			"/>
		</g>
	</g>
	<g>
		<g>
			<path class="st3" d="M233.2,129.7c25.2-14.1,49.9-29.3,72.9-46.1c5.7-4.2,11.3-8.6,16.5-13.2c2.6-2.3,5.1-4.6,7.3-7
				c2.2-2.4,4.4-4.9,5.7-7.1c0.3-0.6,0.8-1.2,0.9-1.6l0.3-0.7l0.2-0.4c0.1-0.1,0,0,0,0c0,0-0.1,0.1,0,0.2c0,0,0,0.1,0.1,0.1
				c0,0,0-0.4,0-0.6l0-1.4l0-0.3l0-0.1c0-1.1,0,1.4,0,1.2l0-0.1l-0.1-0.4c-0.4-1.1-0.4-2.2-1-3.3l-0.7-1.7c-0.2-0.6-0.7-1.1-1-1.7
				c-2.8-4.4-7.2-8.6-12.3-11.8c-5-3.3-10.8-5.8-16.4-7.1l-2.1-0.5l-2.1-0.2l-2-0.3l-1.9,0c-1.3-0.1-2.5,0.1-3.6,0.3l-0.9,0.1
				l-0.4,0.2c-0.3,0.1-0.5,0.1-0.9,0.1c-0.1,0-0.1-0.1-0.3,0l-0.6,0.3l-1.2,0.6l-1.2,0.6l-0.6,0.3l-0.2,0.1l-0.1,0
				c-0.2,0.1,1.8-1.1,0.9-0.5l-0.2,0.2c-1.1,0.9-2.3,1.6-3.4,2.6c-1.1,0.9-2.3,1.9-3.3,3c-1.1,1-2.1,2.2-3.2,3.3
				c-4.1,4.6-7.9,10-11.3,15.7c-6.8,11.5-12.3,24.3-17.2,37.5c-4.9,13.2-9.2,26.8-13,40.5c-1.1,4.2-11.8,3-11.5-1.9
				c1.1-14.8,3.5-29.4,7.1-43.9c3.6-14.5,8.5-28.9,15.8-42.7c3.7-6.9,8-13.6,13.4-19.8c1.3-1.6,2.7-3.1,4.3-4.6
				c1.4-1.5,3.1-2.9,4.7-4.3c1.6-1.4,3.5-2.6,5.2-3.9l0.3-0.2l1.1-0.6l0.1,0l0.2-0.1l0.6-0.3l1.2-0.6l1.2-0.6l0.6-0.3l1-0.4
				c1.4-0.5,2.9-1,4.3-1.4c0.7-0.2,1.5-0.4,2.2-0.6l1.8-0.2c2.4-0.3,4.9-0.6,7.2-0.4l3.5,0.1c1.1,0.1,2.2,0.3,3.3,0.5l3.3,0.6
				l3.1,0.8c8.4,2.3,15.9,6.1,22.7,11.1c6.8,5,12.9,11.3,17.2,19.5c0.5,1.1,1.1,2,1.5,3.1l1.2,3.4c0.9,2.2,1.1,4.8,1.4,7.2l0.1,0.9
				l0,0.1c0,0.6,0-1.2,0,1.4l0,0.2l0,0.3l-0.1,1.4c0,0.3,0,0.3-0.1,0.8l-0.3,1.4c-0.2,0.9-0.5,1.9-0.8,2.8c-0.3,1-0.7,1.6-1,2.1
				l-0.9,1.7c-0.6,1.2-1.3,2-2,3c-2.8,3.7-5.7,6.5-8.7,9.1c-3,2.6-6,5-9.1,7.2c-6.1,4.4-12.4,8.4-18.8,12.1
				c-25.5,14.8-51.8,27-78.4,38.6C230.4,135.1,229.2,131.9,233.2,129.7z"/>
			<path d="M232.4,137.2c-1.4,0-2.6-0.4-3.4-1.1c-4.5-1-7.4-4.1-7.1-7.8c1.2-15,3.6-30,7.2-44.5c4.2-16.7,9.5-30.9,16.1-43.4
				c4.2-7.9,8.8-14.6,13.9-20.5c1.7-1.9,3.1-3.5,4.5-4.8c1.4-1.5,3.1-3,4.9-4.4c1.1-1,2.5-2,3.8-2.9c0.5-0.4,1.1-0.8,1.6-1.1
				l2.7-1.6l4.4-2.1c1.6-0.6,3.1-1,4.6-1.5l0.4-0.1c0.7-0.2,1.4-0.4,2-0.5l2.1-0.3c2.7-0.3,5.3-0.6,7.9-0.4l3.3,0.1
				c1.1,0.1,2,0.3,2.8,0.4l4.2,0.7l3.5,0.9c8.5,2.4,16.5,6.3,23.9,11.7C344,20.1,350,26.9,354,34.7c0.2,0.4,0.4,0.7,0.5,1
				c0.4,0.8,0.9,1.7,1.2,2.6l1.2,3.4c0.8,1.9,1.1,4.2,1.4,6.2l0.4,3.1l0,0c0,0,0,0.1,0,0.1h0l0,0.4c0,0.3,0,0.6,0,0.9l0,0.2
				l-0.2,2.1c0,0.4,0,0.6-0.2,1.2l-0.3,1.5c-0.3,1.1-0.6,2.2-1,3.2c-0.4,1.2-0.8,1.9-1.1,2.5l-1,1.8c-0.6,1.1-1.2,2-1.8,2.8
				l-0.4,0.6c-3,4.1-6.2,7-9.2,9.7c-3,2.6-6.2,5.1-9.4,7.4c-5.5,4-11.6,7.9-19,12.3c-26.6,15.5-53.6,27.8-78.8,38.8
				C234.8,137,233.5,137.2,232.4,137.2z M282.6,9.8l-4.6,2.5c-0.5,0.4-1.1,0.8-1.7,1.2c-1.2,0.8-2.3,1.6-3.2,2.4
				c-1.7,1.4-3.2,2.7-4.6,4.1c-1.4,1.3-2.6,2.6-4.1,4.4c-4.8,5.5-9,11.8-13,19.2c-6.4,12-11.4,25.7-15.5,41.9
				c-3.5,14.1-5.9,28.7-7,43.2c0.6-0.7,1.5-1.4,2.6-2c1.1-0.6,2.2-1.2,3.3-1.9c3.5-12.4,7.5-24.5,11.7-36.1
				c5.8-15.6,11.4-27.6,17.5-38c3.8-6.4,7.7-11.8,11.7-16.3c1-1.1,2.1-2.4,3.4-3.6c0.9-1,2.1-1.9,3.2-2.9c0.9-0.8,1.8-1.4,2.6-2
				c0.1-0.1,0.2-0.1,0.3-0.2c0.2-0.2,0.4-0.3,0.6-0.5l0,0l0.4-0.2c0.2-0.1,0.4-0.2,0.6-0.4l3-1.7l0.1,0.2l1-0.5l0.7,0.1l1-0.2
				l1.5-0.2c1-0.1,2.2-0.3,3.6-0.2l1.8,0l4.7,0.6l2.1,0.5c6,1.4,12,4,17.5,7.5c5.7,3.7,10.4,8.3,13.3,12.9c0.1,0.2,0.2,0.4,0.3,0.5
				c0.3,0.4,0.7,1,1,1.7l0.6,1.4c0.1,0.1,0.1,0.3,0.2,0.4l1.2,0l0.1,3.5c0,0.2,0,0.4,0,0.7l0.8,0.6l-0.9,2c-0.1,0.5-0.3,1.1-0.8,1.7
				c-0.2,0.6-0.6,1.2-0.9,1.6l-0.2,0.4c-1.3,2.2-3.2,4.6-6.1,7.7c-2.4,2.5-5,5-7.6,7.3c-4.7,4.2-10,8.4-16.7,13.4
				c-14.1,10.3-29.6,20.6-47,31.1c16.6-7.7,33.6-16.2,50.3-26c7.3-4.3,13.2-8.1,18.5-12c3.1-2.2,6-4.5,8.8-7c2.7-2.4,5.5-5,8.1-8.5
				l0.5-0.6c0.4-0.6,0.9-1.1,1.3-1.9l1-1.8c0.3-0.5,0.5-0.8,0.7-1.5c0.3-0.9,0.6-1.7,0.8-2.5l0.5-3.3l-0.1-1.8
				c-0.1-0.5-0.2-1.1-0.2-1.7c-0.2-1.8-0.5-3.4-1-4.7l-1.2-3.6c-0.2-0.6-0.5-1.1-0.8-1.6c-0.2-0.4-0.4-0.7-0.6-1.1
				c-3.5-6.8-8.8-12.7-16.2-18.2C325,14.8,317.7,11.2,310,9l-3.1-0.8l-3.8-0.6c-0.8-0.1-1.5-0.2-2.3-0.3l-3.2-0.1
				c-2.1-0.2-4.3,0.1-6.6,0.4l-1.8,0.2c-0.2,0.1-0.8,0.2-1.3,0.3l-0.4,0.1c-1.4,0.4-2.7,0.8-4.1,1.3L282.6,9.8z M290.1,30.8
				c-0.4,0.3-0.8,0.6-1.2,0.9c-0.6,0.4-1.1,0.8-1.7,1.3l-0.4,0.4c-0.9,0.8-1.9,1.6-2.8,2.5c-1.2,1.1-2.2,2.2-3.1,3.2
				c-3.7,4.1-7.4,9.3-10.9,15.2c-5.9,10-11.3,21.7-16.9,36.9c-3.4,9.2-6.6,18.8-9.6,28.7c23-13.3,42.9-26.1,60.5-39.1
				c6.5-4.8,11.6-9,16.2-13c2.5-2.2,4.9-4.5,7.1-6.8c1.6-1.7,3.9-4.3,5.2-6.5l0.3-0.5c0-0.1,0.1-0.1,0.1-0.2l-0.4-0.9l0.7-0.7
				c0-0.2-0.1-0.4-0.1-0.6c-0.1-0.5-0.2-0.8-0.3-1l-0.2-0.4l-0.7-1.7c-0.1-0.2-0.2-0.3-0.3-0.4c-0.2-0.3-0.4-0.6-0.6-0.9
				c-2.3-3.7-6.3-7.5-11.1-10.6c-4.8-3.1-10.1-5.4-15.3-6.6l-1.9-0.5l-3.7-0.5l-1.7,0c-0.9-0.1-1.6,0-2.3,0.1l-1.3,0.2
				c-0.5,0.2-1,0.3-1.4,0.3L290.1,30.8z"/>
		</g>
	</g>
	<g>
		<g>
			<path class="st3" d="M226.8,133c-26.6-11.7-52.9-23.8-78.4-38.6c-6.4-3.7-12.6-7.7-18.8-12.1c-3.1-2.2-6.1-4.6-9.1-7.1
				c-3-2.6-5.9-5.4-8.7-9.1c-0.7-0.9-1.4-1.8-2-3l-0.9-1.7l-0.5-0.9c-0.2-0.3-0.3-0.8-0.5-1.3c-0.3-0.9-0.6-1.8-0.8-2.8l-0.3-1.4
				c-0.1-0.4-0.1-0.5-0.1-0.8l-0.1-1.4l0-0.3l0-0.1c0,1.1,0-1.6,0-1.3l0-0.2l0.1-0.9c0.4-2.4,0.6-5,1.4-7.2l1.2-3.4
				c0.4-1.1,1-2.1,1.5-3.1c4.3-8.2,10.4-14.5,17.2-19.5c6.8-5,14.4-8.8,22.7-11.2l3.2-0.9l3.3-0.6c1.1-0.2,2.2-0.4,3.3-0.5l3.5-0.1
				c2.3-0.2,4.7,0.1,7.2,0.4l1.8,0.2c0.7,0.1,1.5,0.4,2.2,0.6c1.5,0.4,2.9,0.9,4.4,1.4c0.3,0.1,0.8,0.3,1,0.4l0.6,0.3l1.2,0.6
				l1.2,0.6l0.6,0.3l0.2,0.1l0.1,0c-0.2-0.1,1.9,1.1,1.1,0.6l0.3,0.2c1.8,1.3,3.7,2.5,5.2,3.9c1.7,1.4,3.3,2.8,4.7,4.3
				c1.5,1.5,2.9,3,4.3,4.6c5.4,6.3,9.7,13,13.4,19.9c7.3,13.8,12.1,28.2,15.7,42.7c3.5,14.5,5.7,29.2,6.7,44
				c0.3,4.7-10.4,6.1-11.5,1.9c-3.6-13.7-7.8-27.4-12.6-40.6c-4.8-13.2-10.3-26-17.1-37.5c-3.4-5.7-7.1-11.1-11.3-15.8
				c-1-1.2-2.1-2.3-3.2-3.3c-1.1-1.1-2.2-2-3.3-3c-1.1-1-2.3-1.7-3.4-2.6l-0.2-0.2c1.9,1.1,0.5,0.3,0.9,0.5l-0.1,0L174,28l-0.6-0.3
				l-1.2-0.6l-1.2-0.6l-0.6-0.3c-0.2-0.1-0.2,0-0.3,0c-0.3,0-0.6,0-0.9-0.1c-0.2,0-0.2-0.1-0.4-0.2l-0.9-0.1
				c-1.2-0.1-2.3-0.4-3.6-0.3l-1.9,0l-2,0.3l-2.1,0.3l-2.1,0.5c-5.6,1.3-11.3,3.9-16.4,7.1c-5,3.3-9.5,7.4-12.2,11.9
				c-0.8,1.1-1.2,2.2-1.7,3.3c-0.7,1.1-0.6,2.2-1,3.3l-0.1,0.4l0,0.1c-0.7-0.5,1.5,1.2-1.5-1.1l0.2,0.2l0.4,0.3
				c0.3,0.2,0.6,0.4,0.8,0.6l0,0.7c0,0.2,0,0.6,0,0.5c0,0,0.1-0.1,0.1-0.1c0-0.1,0-0.1,0-0.2c-0.1-0.1,0,0.1,0.1,0.4l0.3,0.7
				c0.1,0.5,0.6,1,0.9,1.6c1.3,2.3,3.5,4.7,5.7,7.1c2.3,2.4,4.7,4.7,7.3,7c5.2,4.6,10.8,8.9,16.5,13.2c23,16.8,47.7,32,72.9,46.1
				C232.8,131.9,231.1,134.8,226.8,133z"/>
			<path d="M229.2,137c-1.1,0-2.4-0.3-3.7-0.8l0,0c-25.3-11.1-52.4-23.5-78.8-38.8c-7.5-4.4-13.6-8.3-19.1-12.3
				c-3.2-2.3-6.4-4.8-9.3-7.3c-3-2.7-6.2-5.6-9.2-9.6l-0.4-0.5c-0.6-0.8-1.3-1.7-1.9-2.9l-1.4-2.5c-0.2-0.4-0.4-0.9-0.6-1.5
				c-0.5-1.3-0.8-2.3-1-3.4l-0.2-1.1H103l0-3.5c0-0.4,0-0.9,0.1-1.5h0h0c0-0.2,0-0.3,0.1-0.5l-0.1,0l0.4-2.8c0.3-2,0.6-4.3,1.4-6.4
				l1.1-3.2c0.3-1,0.8-1.8,1.2-2.6c0.2-0.3,0.3-0.6,0.5-0.9c4.1-7.9,10.1-14.7,18.3-20.8c7.4-5.4,15.4-9.4,23.9-11.7l3.2-0.9
				l4.6-0.8c0.8-0.1,1.7-0.3,2.6-0.4l3.7-0.2c2.4-0.2,4.9,0.1,7.8,0.4l1.8,0.2c1,0.2,1.8,0.4,2.6,0.6c1.7,0.5,3.2,1,4.7,1.5l0.3,0.1
				c0.4,0.1,0.8,0.3,1,0.4l3.7,1.9l0,0.1c0.2,0.1,0.3,0.1,0.5,0.2l0,0l0,0c0.5,0.2,0.9,0.5,1.2,0.7l3,1.8l-0.1,0.2
				c1.1,0.7,2.1,1.5,3.1,2.5c1.6,1.3,3.3,2.8,4.9,4.5c1.7,1.6,3.3,3.4,4.4,4.7c5.1,5.9,9.6,12.6,13.8,20.5
				c6.7,12.6,11.9,26.9,16,43.5c3.5,14.6,5.8,29.6,6.8,44.6c0.2,3.6-2.5,6.6-6.9,7.7C231.6,136.7,230.5,137,229.2,137z M226.3,124.3
				c1.3,0.7,2.6,1.5,3.9,2.2c0.8,0.5,1.5,0.9,2.1,1.4c-1-14.2-3.2-28.5-6.5-42.5c-4-16.1-9-29.8-15.4-41.9c-4-7.4-8.2-13.7-13-19.2
				c-1.1-1.2-2.5-2.8-4-4.3c-1.5-1.5-3.1-2.9-4.6-4.1c-1-0.9-2.1-1.7-3.3-2.5c-0.6-0.4-1.2-0.8-1.8-1.3l-1.7-1l-3.7-1.8
				c-1.3-0.5-2.7-0.9-4.1-1.3c-0.7-0.2-1.4-0.4-2-0.5l-1.5-0.2c-2-0.2-4.5-0.5-6.5-0.4l-3.6,0.2c-0.5,0.1-1.2,0.2-2,0.3l-4.2,0.7
				L151.6,9c-7.6,2.1-14.9,5.7-21.6,10.6c-7.3,5.4-12.6,11.4-16.2,18.3c-0.1,0.3-0.3,0.7-0.5,1c-0.3,0.5-0.6,1.1-0.8,1.7l-1.1,3.4
				c-0.6,1.5-0.8,3.1-1,4.9l-0.3,2.5c0,0.3,0,0.9,0,1.2h0l0.1,1.4L110,54l0,0.4l0.2-0.1l0.3,1.4c0.2,0.8,0.4,1.6,0.7,2.4
				c0.2,0.5,0.2,0.7,0.3,0.8l1.3,2.4c0.4,0.8,0.9,1.4,1.3,2l0.4,0.6c2.6,3.5,5.5,6.1,8.2,8.5c2.8,2.4,5.8,4.7,8.8,6.9
				c5.4,3.8,11.2,7.6,18.5,11.9c16.7,9.7,33.6,18.2,50.3,25.9c-17.3-10.5-32.8-20.7-46.9-31c-6.7-4.9-12-9.2-16.7-13.4
				c-2.6-2.3-5.1-4.7-7.6-7.2c-3-3.1-4.9-5.6-6.2-7.8l-0.2-0.4c-0.2-0.3-0.4-0.6-0.5-0.9l-1.1-0.4l0-2c-0.1-0.1-0.1-0.1-0.2-0.2
				l0.1-0.1l-1.2-1l1.7-2.5c0-0.2,0.1-0.3,0.1-0.4c0.2-0.8,0.4-1.8,1-2.9l0.1-0.2c0.5-1.1,1-2.3,1.9-3.6c2.7-4.4,7.4-9,13.1-12.7
				c5.4-3.5,11.5-6.2,17.5-7.6l2.5-0.6l4.5-0.6h1.9c1.1-0.1,2.4,0.1,3.4,0.2l2.5,0.4l0.5-0.1l2.2,0.9l0.1-0.1l2.2,1.3l0,0
				c0.1,0.1,0.3,0.2,0.5,0.3l0.4,0.3l0,0c0.3,0.2,0.5,0.4,0.8,0.6c0,0,0.1,0.1,0.1,0.1c0.8,0.6,1.7,1.2,2.5,1.9l0.2,0.2
				c1.1,0.9,2.2,1.8,3.2,2.9c1.2,1.1,2.4,2.4,3.3,3.4c4,4.5,7.9,9.9,11.7,16.3c6.1,10.5,11.7,22.6,17.3,38.1
				C219.2,100.2,223,112.1,226.3,124.3z M128.6,53.6c0,0,0.1,0.1,0.2,0.2l0.3,0.5c1.3,2.2,3.6,4.8,5.2,6.5c2.2,2.3,4.6,4.6,7.1,6.8
				c4.6,4,9.8,8.2,16.3,13c17.4,12.8,37.2,25.5,60,38.7c-2.8-9.6-5.9-19.1-9.2-28.2c-5.5-15.1-10.9-26.9-16.8-37
				c-3.5-6-7.2-11.1-10.9-15.2c-0.8-0.9-1.9-2.1-2.9-3.1c-1-1.1-1.9-1.8-2.8-2.6l-0.4-0.3c-0.7-0.6-1.2-1-1.8-1.4
				c-0.4-0.3-0.8-0.6-1.2-0.9l-2.3-1.2c-0.4,0-0.9-0.1-1.3-0.3l-1.4-0.2c-0.8-0.1-1.4-0.2-2.1-0.1l-2,0l-3.7,0.5l-1.9,0.5
				c-5.2,1.2-10.5,3.6-15.3,6.7c-4.8,3.2-8.8,7-11.1,10.8c-0.6,0.9-0.9,1.6-1.3,2.4l-0.4,0.9c-0.1,0.2-0.2,0.4-0.2,0.8l0.8,0.7
				l-0.4,0.6L128.6,53.6z M128.6,53.6L128.6,53.6C128.6,53.7,128.6,53.7,128.6,53.6L128.6,53.6z M167.6,29.1
				C167.6,29.1,167.6,29.1,167.6,29.1L167.6,29.1z"/>
		</g>
	</g>
	<g>
		<rect x="186.3" y="128.8" class="st3" width="88.3" height="76.2"/>
		<path d="M279.8,210.2H181v-86.6h98.8V210.2z M191.5,199.7h77.8V134h-77.8V199.7z"/>
	</g>
</g>
</svg>
