<svg width="25" height="48" viewBox="0 0 25 48" fill="none" xmlns="http://www.w3.org/2000/svg">
<path d="M1.78091 13.654L4.88831 47C4.91009 47.2575 5.02779 47.4975 5.21809 47.6724C5.4084 47.8473 5.65744 47.9444 5.91591 47.9444H18.8946C19.1531 47.9444 19.4022 47.8474 19.5925 47.6725C19.7828 47.4976 19.9005 47.2575 19.9222 47L23.0296 13.654H1.78091Z" fill="#BFBFBF"/>
<path d="M23.6705 11.2652H1.14005C0.837693 11.2652 0.547715 11.3853 0.333914 11.5991C0.120113 11.8129 0 12.1029 0 12.4052V13.6553H24.8081V12.4052C24.8081 12.1033 24.6883 11.8137 24.475 11.6C24.2618 11.3863 23.9724 11.2659 23.6705 11.2652Z" fill="#6D6D6D"/>
<path opacity="0.21" d="M23.0285 13.654L22.8886 15.3237H1.92247L1.78258 13.654H23.0285Z" fill="black"/>
<path d="M12.4727 30.9454C14.9429 30.9454 16.9454 28.9429 16.9454 26.4727C16.9454 24.0025 14.9429 22 12.4727 22C10.0025 22 8 24.0025 8 26.4727C8 28.9429 10.0025 30.9454 12.4727 30.9454Z" fill="#00623B"/>
<path d="M12.4052 0C9.41743 0 6.55208 1.18687 4.43944 3.29951C2.3268 5.41215 1.13994 8.2775 1.13994 11.2652H23.6704C23.6704 8.2775 22.4835 5.41215 20.3709 3.29951C18.2582 1.18687 15.3929 0 12.4052 0Z" fill="black" fill-opacity="0.35"/>
<path d="M12.4057 1.93924C13.5769 1.93924 14.5262 1.63064 14.5262 1.24997C14.5262 0.869299 13.5769 0.560703 12.4057 0.560703C11.2346 0.560703 10.2852 0.869299 10.2852 1.24997C10.2852 1.63064 11.2346 1.93924 12.4057 1.93924Z" fill="white" fill-opacity="0.63"/>
<path d="M18.922 8.87633H5.88851C5.25499 8.87641 4.64746 9.12813 4.19953 9.57612C3.75159 10.0241 3.49995 10.6317 3.49995 11.2652H21.3109C21.3109 10.6316 21.0592 10.024 20.6112 9.57601C20.1632 9.12801 19.5556 8.87633 18.922 8.87633Z" fill="#80DEEA"/>
<path d="M16.9341 6.4875H7.87531C7.24175 6.4875 6.63414 6.73919 6.18614 7.18718C5.73814 7.63518 5.48645 8.2428 5.48645 8.87636H19.3211C19.3211 8.24312 19.0697 7.63578 18.6221 7.18784C18.1745 6.73989 17.5673 6.48799 16.9341 6.4875Z" fill="#80DEEA"/>
<path d="M14.9465 4.09863H9.86431C9.23083 4.09863 8.62329 4.35028 8.17535 4.79822C7.7274 5.24617 7.47575 5.8537 7.47575 6.48719H17.3356C17.3356 6.17348 17.2738 5.86285 17.1537 5.57303C17.0336 5.28322 16.8576 5.0199 16.6357 4.7981C16.4139 4.5763 16.1505 4.40037 15.8607 4.28036C15.5708 4.16034 15.2602 4.09859 14.9465 4.09863Z" fill="#80DEEA"/>
</svg>
