<svg version="1.1" id="Layer_1" xmlns="http://www.w3.org/2000/svg" xmlns:xlink="http://www.w3.org/1999/xlink" x="0px" y="0px"
	 viewBox="0 0 1000 1000" style="enable-background:new 0 0 1000 1000;" xml:space="preserve">
<path d="M665.176,750H334.824C287.977,750,250,712.023,250,665.176V334.824C250,287.977,287.977,250,334.824,250h330.353
	C712.023,250,750,287.977,750,334.824v330.353C750,712.023,712.023,750,665.176,750z"/>
<g id="watermark_1_">
	<g style="opacity:0.61;">
		<path style="fill:#606060;" d="M297,963.076h3.498c2.75,0,4.603,1.768,4.603,4.297s-1.854,4.296-4.603,4.296H297V963.076z
			 M300.449,970.883c2.283,0,3.756-1.448,3.756-3.51s-1.473-3.511-3.756-3.511h-2.541v7.021H300.449z"/>
		<path style="fill:#606060;" d="M315.251,967.373c0-2.504,1.915-4.37,4.517-4.37c2.577,0,4.505,1.853,4.505,4.37
			c0,2.516-1.927,4.369-4.505,4.369C317.166,971.742,315.251,969.877,315.251,967.373z M323.365,967.373
			c0-2.05-1.534-3.56-3.596-3.56c-2.075,0-3.621,1.51-3.621,3.56c0,2.049,1.546,3.559,3.621,3.559
			C321.831,970.932,323.365,969.422,323.365,967.373z"/>
		<path style="fill:#606060;" d="M346.724,963.076l-2.897,8.593h-0.957l-2.516-7.328l-2.529,7.328h-0.945l-2.897-8.593h0.933
			l2.479,7.389l2.566-7.389h0.847l2.529,7.426l2.516-7.426H346.724z"/>
		<path style="fill:#606060;" d="M364.435,963.076v8.593h-0.749l-5.524-6.972v6.972h-0.908v-8.593h0.749l5.536,6.973v-6.973H364.435
			z"/>
		<path style="fill:#606060;" d="M376.108,963.076h0.908v7.807h4.812v0.786h-5.72V963.076z"/>
		<path style="fill:#606060;" d="M391.279,967.373c0-2.504,1.915-4.37,4.517-4.37c2.577,0,4.505,1.853,4.505,4.37
			c0,2.516-1.927,4.369-4.505,4.369C393.194,971.742,391.279,969.877,391.279,967.373z M399.392,967.373
			c0-2.05-1.534-3.56-3.596-3.56c-2.075,0-3.621,1.51-3.621,3.56c0,2.049,1.546,3.559,3.621,3.559
			C397.858,970.932,399.392,969.422,399.392,967.373z"/>
		<path style="fill:#606060;" d="M416.478,969.374h-4.787l-1.031,2.295h-0.945l3.928-8.593h0.896l3.928,8.593h-0.957
			L416.478,969.374z M416.147,968.637l-2.062-4.615l-2.062,4.615H416.147z"/>
		<path style="fill:#606060;" d="M428.765,963.076h3.498c2.75,0,4.603,1.768,4.603,4.297s-1.854,4.296-4.603,4.296h-3.498V963.076z
			 M432.214,970.883c2.283,0,3.756-1.448,3.756-3.51s-1.473-3.511-3.756-3.511h-2.541v7.021H432.214z"/>
		<path style="fill:#606060;" d="M465.256,969.374h-4.787l-1.031,2.295h-0.945l3.928-8.593h0.896l3.928,8.593h-0.957
			L465.256,969.374z M464.925,968.637l-2.062-4.615l-2.062,4.615H464.925z"/>
		<path style="fill:#606060;" d="M477.543,963.076h0.908v7.807h4.812v0.786h-5.72V963.076z"/>
		<path style="fill:#606060;" d="M493.647,963.076h0.908v7.807h4.812v0.786h-5.72V963.076z"/>
		<path style="fill:#606060;" d="M522.749,963.862v3.376h4.443v0.786h-4.443v3.646h-0.909v-8.593h5.891v0.786H522.749z"/>
		<path style="fill:#606060;" d="M538.485,963.076h0.909v8.593h-0.909V963.076z"/>
		<path style="fill:#606060;" d="M551.067,963.076h0.909v7.807h4.811v0.786h-5.72V963.076z"/>
		<path style="fill:#606060;" d="M573.246,970.883v0.786h-6.076v-8.593h5.891v0.786h-4.983v3.056h4.443v0.774h-4.443v3.191H573.246z
			"/>
		<path style="fill:#606060;" d="M597.255,963.862v3.376h4.443v0.786h-4.443v3.646h-0.909v-8.593h5.891v0.786H597.255z"/>
		<path style="fill:#606060;" d="M612.119,967.373c0-2.504,1.915-4.37,4.517-4.37c2.577,0,4.505,1.853,4.505,4.37
			c0,2.516-1.927,4.369-4.505,4.369C614.034,971.742,612.119,969.877,612.119,967.373z M620.232,967.373
			c0-2.05-1.534-3.56-3.596-3.56c-2.075,0-3.622,1.51-3.622,3.56c0,2.049,1.547,3.559,3.622,3.559
			C618.698,970.932,620.232,969.422,620.232,967.373z"/>
		<path style="fill:#606060;" d="M637.919,971.669l-1.963-2.762c-0.222,0.024-0.442,0.037-0.688,0.037h-2.307v2.725h-0.909v-8.593
			h3.216c2.185,0,3.511,1.105,3.511,2.946c0,1.351-0.712,2.295-1.964,2.7l2.099,2.946H637.919z M637.871,966.022
			c0-1.375-0.909-2.161-2.627-2.161h-2.283v4.309h2.283C636.962,968.17,637.871,967.373,637.871,966.022z"/>
		<path style="fill:#606060;" d="M658.724,963.076v8.593h-0.871v-6.874l-3.376,5.782h-0.429l-3.376-5.745v6.837h-0.872v-8.593h0.749
			l3.732,6.371l3.695-6.371H658.724z"/>
		<path style="fill:#606060;" d="M675.787,969.374h-4.788l-1.031,2.295h-0.946l3.928-8.593h0.896l3.928,8.593h-0.957
			L675.787,969.374z M675.455,968.637l-2.062-4.615l-2.062,4.615H675.455z"/>
		<path style="fill:#606060;" d="M689.312,963.862h-3.02v-0.786h6.948v0.786h-3.02v7.807h-0.908V963.862z"/>
		<path style="fill:#606060;" d="M702.605,970.626l0.356-0.7c0.614,0.601,1.706,1.043,2.835,1.043c1.608,0,2.308-0.675,2.308-1.522
			c0-2.357-5.29-0.908-5.29-4.087c0-1.265,0.982-2.357,3.167-2.357c0.97,0,1.976,0.282,2.664,0.761l-0.307,0.724
			c-0.737-0.479-1.596-0.712-2.357-0.712c-1.571,0-2.271,0.7-2.271,1.559c0,2.357,5.29,0.933,5.29,4.063
			c0,1.265-1.006,2.344-3.204,2.344C704.508,971.742,703.243,971.288,702.605,970.626z"/>
	</g>
</g>
<g>
	<path id="path4155" style="fill:#B1060F;" d="M527.819,324.278l-0.139,77.786l-0.139,77.786l-6.39-18.057v-0.046l-8.288,173.166
		c8.149,22.965,12.501,35.235,12.548,35.281c0.046,0.046,4.676,0.324,10.279,0.602c16.946,0.833,37.967,2.639,53.941,4.63
		c3.704,0.463,6.853,0.695,7.084,0.509c0.232-0.185,0.278-79.36,0.232-175.99l-0.139-175.666L527.819,324.278L527.819,324.278z"/>
	<path id="path4157" style="fill:#B1060F;" d="M403.038,324.046v175.851c0,96.723,0.093,175.944,0.232,176.083
		c0.139,0.139,6.112-0.463,13.335-1.25c7.223-0.787,17.178-1.806,22.132-2.222c7.593-0.648,30.373-2.083,32.966-2.13
		c0.787,0,0.833-3.936,0.926-74.498l0.139-74.498l5.51,15.557c0.833,2.408,1.111,3.148,1.945,5.51l8.288-173.119
		c-1.759-4.954-0.833-2.361-2.824-8.01c-6.76-19.122-12.501-35.281-12.733-36.022L472.489,324h-69.451V324.046z"/>
	<path id="path5715" style="fill:#B1060F;" d="M527.819,324.278l-0.139,77.786l-0.139,77.786l-6.39-18.057v-0.046l-8.288,173.166
		c8.149,22.965,12.501,35.235,12.548,35.281c0.046,0.046,4.676,0.324,10.279,0.602c16.946,0.833,37.967,2.639,53.941,4.63
		c3.704,0.463,6.853,0.695,7.084,0.509c0.232-0.185,0.278-79.36,0.232-175.99l-0.139-175.666L527.819,324.278L527.819,324.278z"/>
	<path id="path5717" style="fill:#B1060F;" d="M403.038,324.046v175.851c0,96.723,0.093,175.944,0.232,176.083
		c0.139,0.139,6.112-0.463,13.335-1.25c7.223-0.787,17.178-1.806,22.132-2.222c7.593-0.648,30.373-2.083,32.966-2.13
		c0.787,0,0.833-3.936,0.926-74.498l0.139-74.498l5.51,15.557c0.833,2.408,1.111,3.148,1.945,5.51l8.288-173.119
		c-1.759-4.954-0.833-2.361-2.824-8.01c-6.76-19.122-12.501-35.281-12.733-36.022L472.489,324h-69.451V324.046z"/>
	<path id="path5721" style="fill:#E50914;" d="M403.038,324.046l69.683,197.474v-0.093l5.51,15.557
		c30.605,86.629,47.042,133.115,47.134,133.208c0.046,0.046,4.676,0.324,10.279,0.602c16.946,0.833,37.967,2.639,53.941,4.63
		c3.658,0.463,6.853,0.695,7.038,0.509l-69.081-196.131v0.046l-6.39-18.057c-6.251-17.641-10.418-29.447-35.559-100.473
		c-6.76-19.122-12.501-35.281-12.733-36.022L472.397,324h-34.679L403.038,324.046L403.038,324.046z"/>
</g>
</svg>
