<svg width="32" height="32" viewBox="0 0 32 32" fill="#00623B" xmlns="http://www.w3.org/2000/svg">
    <path
        d="M4.30005 12.3C4.70005 12.8 5.00005 13.4 5.20005 14C5.40005 14.6 5.50005 15.3 5.50005 16C5.50005 16.7 5.40005 17.4 5.20005 18C5.00005 18.6 4.70005 19.2 4.30005 19.7C3.80005 20.4 3.90005 21.4 4.60005 21.9C5.30005 22.4 6.30005 22.3 6.80005 21.6C7.40005 20.8 7.80005 20 8.20005 19C8.60005 18 8.70005 17 8.70005 16C8.70005 15 8.50005 14 8.20005 13C7.90005 12.1 7.40005 11.2 6.80005 10.4C6.30005 9.7 5.30005 9.6 4.60005 10.1C3.90005 10.6 3.80005 11.6 4.30005 12.3Z"
        fill="#00623B" />
    <path
        d="M9.80005 9.4C11 11.3 11.7 13.6 11.7 16C11.7 18.4 11 20.7 9.80005 22.6C9.30005 23.3 9.60005 24.3 10.3 24.8C11.1 25.3 12 25 12.5 24.3C14 21.9 14.9 19.1 14.9 16C14.9 13 14 10.1 12.5 7.7C12 7 11 6.7 10.3 7.2C9.60005 7.7 9.30005 8.6 9.80005 9.4Z"
        fill="#00623B" />
    <path
        d="M15.6 6.4C17.3 9.2 18.2 12.5 18.2 16C18.2 19.5 17.2 22.8 15.6 25.6C15.2 26.4 15.4 27.3 16.2 27.8C17 28.2 17.9 28 18.4 27.2C20.4 23.9 21.5 20.1 21.5 16C21.5 11.9 20.4 8.1 18.4 4.8C18 4 17 3.8 16.2 4.2C15.4 4.7 15.2 5.6 15.6 6.4Z"
        fill="#00623B" />
    <path
        d="M21.4 3.4C23.5 7.1 24.8 11.4 24.8 16C24.8 20.6 23.6 24.9 21.4 28.6C21 29.4 21.2 30.3 22 30.8C22.8 31.2 23.7 31 24.2 30.2C26.6 26 28 21.2 28 16C28 10.8 26.6 6 24.2 1.8C23.8 1 22.8 0.8 22 1.2C21.2 1.6 21 2.6 21.4 3.4Z"
        fill="#00623B" />
</svg>