<?xml version="1.0" encoding="UTF-8"?>
<svg width="700pt" height="700pt" version="1.1" viewBox="0 0 700 700" xmlns="http://www.w3.org/2000/svg">
 <path d="m140 70v81.668c0 6.4414-5.2227 11.664-11.668 11.664-6.4414 0-11.664-5.2227-11.664-11.664v-93.336c0-6.4414 5.2227-11.664 11.664-11.664h93.336c6.4414 0 11.664 5.2227 11.664 11.664 0 6.4453-5.2227 11.668-11.664 11.668zm396.67 0h-81.668c-6.4414 0-11.668-5.2227-11.668-11.668 0-6.4414 5.2266-11.664 11.668-11.664h93.332c6.4453 0 11.668 5.2227 11.668 11.664v93.336c0 6.4414-5.2227 11.664-11.668 11.664-6.4414 0-11.664-5.2227-11.664-11.664zm-396.67 396.67h81.668c6.4414 0 11.664 5.2227 11.664 11.664 0 6.4453-5.2227 11.668-11.664 11.668h-93.336c-6.4414 0-11.664-5.2227-11.664-11.668v-93.332c0-6.4414 5.2227-11.668 11.664-11.668 6.4453 0 11.668 5.2266 11.668 11.668zm396.67 0v-81.668c0-6.4414 5.2227-11.668 11.664-11.668 6.4453 0 11.668 5.2266 11.668 11.668v93.332c0 6.4453-5.2227 11.668-11.668 11.668h-93.332c-6.4414 0-11.668-5.2227-11.668-11.668 0-6.4414 5.2266-11.664 11.668-11.664zm-408.34-186.67c-6.4414 0-11.664-5.2227-11.664-11.668 0-6.4414 5.2227-11.664 11.664-11.664h420c6.4453 0 11.668 5.2227 11.668 11.664 0 6.4453-5.2227 11.668-11.668 11.668z"/>
</svg>
