<svg width="25" height="40" viewBox="0 0 25 40" fill="none" xmlns="http://www.w3.org/2000/svg">
<path d="M1.78067 13.6539L4.88807 39.0554C4.90985 39.313 5.02755 39.553 5.21785 39.7279C5.40815 39.9028 5.6572 39.9998 5.91567 39.9998H18.8944C19.1528 39.9999 19.4019 39.9029 19.5922 39.728C19.7826 39.553 19.9002 39.313 19.9219 39.0554L23.0294 13.6539H1.78067Z" fill="#BFBFBF"/>
<path d="M23.6705 11.2654H1.14005C0.837694 11.2654 0.547715 11.3855 0.333914 11.5993C0.120114 11.8131 0 12.1031 0 12.4054V13.6555H24.8081V12.4054C24.8081 12.1035 24.6883 11.8139 24.4751 11.6001C24.2618 11.3864 23.9724 11.266 23.6705 11.2654V11.2654Z" fill="#6D6D6D"/>
<path opacity="0.21" d="M23.0285 13.6539L22.8886 15.3236H1.92248L1.78259 13.6539H23.0285Z" fill="black"/>
<path d="M12.4052 30.4919C14.8754 30.4919 16.8779 28.4894 16.8779 26.0192C16.8779 23.549 14.8754 21.5465 12.4052 21.5465C9.93505 21.5465 7.93256 23.549 7.93256 26.0192C7.93256 28.4894 9.93505 30.4919 12.4052 30.4919Z" fill="#00623B"/>
<path d="M12.4052 0C9.41746 0 6.5521 1.18687 4.43946 3.29951C2.32682 5.41215 1.13995 8.27751 1.13995 11.2652H23.6704C23.6704 8.27751 22.4836 5.41215 20.3709 3.29951C18.2583 1.18687 15.3929 0 12.4052 0V0Z" fill="black" fill-opacity="0.35"/>
<path d="M12.4063 1.93904C13.5774 1.93904 14.5268 1.63045 14.5268 1.24978C14.5268 0.869105 13.5774 0.560509 12.4063 0.560509C11.2352 0.560509 10.2858 0.869105 10.2858 1.24978C10.2858 1.63045 11.2352 1.93904 12.4063 1.93904Z" fill="white" fill-opacity="0.63"/>
<path d="M18.9218 8.87617H5.88822C5.2547 8.87626 4.64717 9.12798 4.19924 9.57597C3.75131 10.024 3.49966 10.6315 3.49966 11.265H21.3106C21.3106 10.6315 21.059 10.0239 20.611 9.57586C20.163 9.12786 19.5553 8.87617 18.9218 8.87617Z" fill="#80DEEA"/>
<path d="M16.9337 6.48765H7.87489C7.24132 6.48765 6.63371 6.73933 6.18571 7.18733C5.73771 7.63533 5.48602 8.24295 5.48602 8.87651H19.3207C19.3207 8.24327 19.0693 7.63593 18.6217 7.18798C18.1741 6.74004 17.5669 6.48814 16.9337 6.48765Z" fill="#80DEEA"/>
<path d="M14.9464 4.09853H9.86427C9.23079 4.09853 8.62324 4.35018 8.1753 4.79812C7.72736 5.24606 7.47571 5.8536 7.47571 6.48708H17.3356C17.3356 6.17337 17.2737 5.86274 17.1536 5.57293C17.0336 5.28311 16.8576 5.01979 16.6357 4.79799C16.4139 4.57619 16.1505 4.40027 15.8606 4.28025C15.5708 4.16024 15.2601 4.09849 14.9464 4.09853V4.09853Z" fill="#80DEEA"/>
</svg>
