<svg width="25" height="54" viewBox="0 0 25 54" fill="none" xmlns="http://www.w3.org/2000/svg">
<path d="M1.78092 13.654L4.88832 53.0556C4.9101 53.3131 5.02779 53.5531 5.2181 53.728C5.4084 53.9029 5.65745 54 5.91591 54H18.8946C19.1531 54 19.4022 53.903 19.5925 53.7281C19.7828 53.5532 19.9005 53.3131 19.9222 53.0556L23.0296 13.654H1.78092Z" fill="#BFBFBF"/>
<path d="M23.6705 11.2652H1.14005C0.837693 11.2652 0.547715 11.3853 0.333914 11.5991C0.120113 11.8129 0 12.1029 0 12.4052V13.6553H24.8081V12.4052C24.8081 12.1033 24.6883 11.8137 24.475 11.6C24.2618 11.3863 23.9724 11.2659 23.6705 11.2652Z" fill="#6D6D6D"/>
<path opacity="0.21" d="M23.0285 13.654L22.8886 15.3237H1.92246L1.78257 13.654H23.0285Z" fill="black"/>
<path d="M12.4055 32.9454C14.8757 32.9454 16.8782 30.9429 16.8782 28.4727C16.8782 26.0025 14.8757 24 12.4055 24C9.93535 24 7.93286 26.0025 7.93286 28.4727C7.93286 30.9429 9.93535 32.9454 12.4055 32.9454Z" fill="#00623B"/>
<path d="M12.4052 0C9.41743 0 6.55208 1.18687 4.43944 3.29951C2.3268 5.41215 1.13994 8.2775 1.13994 11.2652H23.6704C23.6704 8.2775 22.4835 5.41215 20.3709 3.29951C18.2582 1.18687 15.3929 0 12.4052 0Z" fill="black" fill-opacity="0.35"/>
<path d="M12.4057 1.93924C13.5768 1.93924 14.5262 1.63065 14.5262 1.24997C14.5262 0.869303 13.5768 0.560707 12.4057 0.560707C11.2346 0.560707 10.2852 0.869303 10.2852 1.24997C10.2852 1.63065 11.2346 1.93924 12.4057 1.93924Z" fill="white" fill-opacity="0.63"/>
<path d="M18.922 8.87633H5.8885C5.25498 8.87641 4.64745 9.12813 4.19952 9.57612C3.75159 10.0241 3.49995 10.6317 3.49995 11.2652H21.3109C21.3109 10.6316 21.0592 10.024 20.6112 9.57601C20.1632 9.12801 19.5556 8.87633 18.922 8.87633Z" fill="#80DEEA"/>
<path d="M16.9341 6.4875H7.8753C7.24174 6.4875 6.63413 6.73919 6.18613 7.18718C5.73813 7.63518 5.48644 8.2428 5.48644 8.87636H19.3211C19.3211 8.24312 19.0697 7.63578 18.6221 7.18784C18.1745 6.73989 17.5673 6.48799 16.9341 6.4875Z" fill="#80DEEA"/>
<path d="M14.9465 4.09863H9.86431C9.23083 4.09863 8.62329 4.35028 8.17535 4.79822C7.7274 5.24617 7.47575 5.8537 7.47575 6.48719H17.3356C17.3356 6.17348 17.2738 5.86285 17.1537 5.57303C17.0336 5.28322 16.8576 5.0199 16.6357 4.7981C16.4139 4.5763 16.1505 4.40037 15.8607 4.28036C15.5708 4.16034 15.2602 4.09859 14.9465 4.09863Z" fill="#80DEEA"/>
</svg>
