<svg width="163" height="50" viewBox="0 0 163 50" fill="none" xmlns="http://www.w3.org/2000/svg">
<path d="M151.907 0.714111H141.669C138.574 0.714111 136.193 1.66649 134.764 4.76173L115.24 49.2855H129.05C129.05 49.2855 131.431 43.3332 131.907 41.9046C133.335 41.9046 146.907 41.9046 148.812 41.9046C149.288 43.5713 150.478 49.0475 150.478 49.0475H162.859L151.907 0.714111ZM135.716 31.9046C136.907 29.0474 140.955 18.3332 140.955 18.3332C140.955 18.5713 142.145 15.476 142.621 13.8094L143.574 18.0951C143.574 18.0951 146.193 29.7617 146.669 32.1427H135.716V31.9046Z" fill="#FAFAFA"/>
<path d="M116.192 33.3333C116.192 43.3333 107.144 50 93.0969 50C87.1445 50 81.4302 48.8095 78.335 47.381L80.2397 36.4286L81.9064 37.1429C86.1921 39.0476 89.0492 39.7619 94.2873 39.7619C98.0969 39.7619 102.144 38.3333 102.144 35C102.144 32.8571 100.478 31.4286 95.2397 29.0476C90.2397 26.6667 83.5731 22.8571 83.5731 15.9524C83.5731 6.42857 92.8588 0 105.954 0C110.954 0 115.24 0.952381 117.859 2.14286L115.954 12.619L115.002 11.6667C112.621 10.7143 109.525 9.7619 105.002 9.7619C100.002 10 97.6207 12.1429 97.6207 14.0476C97.6207 16.1905 100.478 17.8571 105.002 20C112.621 23.5714 116.192 27.619 116.192 33.3333Z" fill="#FAFAFA"/>
<path d="M0 1.19115L0.238095 0.23877H20.7143C23.5714 0.23877 25.7143 1.19115 26.4286 4.28639L30.9524 25.715C26.4286 14.2864 15.9524 5.00067 0 1.19115Z" fill="#FAFAFA" fill-opacity="0.7"/>
<path d="M59.7624 0.714169L39.0481 49.0475H25.0005L13.0957 8.57131C21.6671 14.0475 28.81 22.6189 31.429 28.5713L32.8576 33.5713L45.7148 0.476074H59.7624V0.714169Z" fill="#FAFAFA"/>
<path d="M65.2396 0.476074H78.3348L70.0015 49.0475H56.9062L65.2396 0.476074Z" fill="#FAFAFA"/>
</svg>
